<?xml version="1.0" standalone="no"?>
<svg xmlns:xlink="http://www.w3.org/1999/xlink" id="wave" style="transform:rotate(0deg); transition: 0.3s" viewBox="0 0 1440 200" version="1.1" xmlns="http://www.w3.org/2000/svg"><defs><linearGradient id="sw-gradient-0" x1="0" x2="0" y1="1" y2="0"><stop stop-color="rgba(255, 255, 255, 1)" offset="0%"/><stop stop-color="rgba(255, 255, 255, 1)" offset="100%"/></linearGradient></defs><path style="transform:translate(0, 0px); opacity:1" fill="url(#sw-gradient-0)" d="M0,100L48,96.7C96,93,192,87,288,80C384,73,480,67,576,56.7C672,47,768,33,864,33.3C960,33,1056,47,1152,63.3C1248,80,1344,100,1440,116.7C1536,133,1632,147,1728,126.7C1824,107,1920,53,2016,50C2112,47,2208,93,2304,96.7C2400,100,2496,60,2592,66.7C2688,73,2784,127,2880,153.3C2976,180,3072,180,3168,153.3C3264,127,3360,73,3456,43.3C3552,13,3648,7,3744,30C3840,53,3936,107,4032,130C4128,153,4224,147,4320,123.3C4416,100,4512,60,4608,63.3C4704,67,4800,113,4896,130C4992,147,5088,133,5184,130C5280,127,5376,133,5472,130C5568,127,5664,113,5760,116.7C5856,120,5952,140,6048,150C6144,160,6240,160,6336,133.3C6432,107,6528,53,6624,53.3C6720,53,6816,107,6864,133.3L6912,160L6912,200L6864,200C6816,200,6720,200,6624,200C6528,200,6432,200,6336,200C6240,200,6144,200,6048,200C5952,200,5856,200,5760,200C5664,200,5568,200,5472,200C5376,200,5280,200,5184,200C5088,200,4992,200,4896,200C4800,200,4704,200,4608,200C4512,200,4416,200,4320,200C4224,200,4128,200,4032,200C3936,200,3840,200,3744,200C3648,200,3552,200,3456,200C3360,200,3264,200,3168,200C3072,200,2976,200,2880,200C2784,200,2688,200,2592,200C2496,200,2400,200,2304,200C2208,200,2112,200,2016,200C1920,200,1824,200,1728,200C1632,200,1536,200,1440,200C1344,200,1248,200,1152,200C1056,200,960,200,864,200C768,200,672,200,576,200C480,200,384,200,288,200C192,200,96,200,48,200L0,200Z"/></svg>