<?xml version="1.0" standalone="no"?>
<svg xmlns:xlink="http://www.w3.org/1999/xlink" id="wave" style="transform:rotate(0deg); transition: 0.3s" viewBox="0 0 1440 100" version="1.1" xmlns="http://www.w3.org/2000/svg"><defs><linearGradient id="sw-gradient-0" x1="0" x2="0" y1="1" y2="0"><stop stop-color="rgba(255, 255, 255, 1)" offset="0%"/><stop stop-color="rgba(255, 255, 255, 1)" offset="100%"/></linearGradient></defs><path style="transform:translate(0, 0px); opacity:1" fill="url(#sw-gradient-0)" d="M0,50L48,48.3C96,47,192,43,288,40C384,37,480,33,576,28.3C672,23,768,17,864,16.7C960,17,1056,23,1152,31.7C1248,40,1344,50,1440,58.3C1536,67,1632,73,1728,63.3C1824,53,1920,27,2016,25C2112,23,2208,47,2304,48.3C2400,50,2496,30,2592,33.3C2688,37,2784,63,2880,76.7C2976,90,3072,90,3168,76.7C3264,63,3360,37,3456,21.7C3552,7,3648,3,3744,15C3840,27,3936,53,4032,65C4128,77,4224,73,4320,61.7C4416,50,4512,30,4608,31.7C4704,33,4800,57,4896,65C4992,73,5088,67,5184,65C5280,63,5376,67,5472,65C5568,63,5664,57,5760,58.3C5856,60,5952,70,6048,75C6144,80,6240,80,6336,66.7C6432,53,6528,27,6624,26.7C6720,27,6816,53,6864,66.7L6912,80L6912,100L6864,100C6816,100,6720,100,6624,100C6528,100,6432,100,6336,100C6240,100,6144,100,6048,100C5952,100,5856,100,5760,100C5664,100,5568,100,5472,100C5376,100,5280,100,5184,100C5088,100,4992,100,4896,100C4800,100,4704,100,4608,100C4512,100,4416,100,4320,100C4224,100,4128,100,4032,100C3936,100,3840,100,3744,100C3648,100,3552,100,3456,100C3360,100,3264,100,3168,100C3072,100,2976,100,2880,100C2784,100,2688,100,2592,100C2496,100,2400,100,2304,100C2208,100,2112,100,2016,100C1920,100,1824,100,1728,100C1632,100,1536,100,1440,100C1344,100,1248,100,1152,100C1056,100,960,100,864,100C768,100,672,100,576,100C480,100,384,100,288,100C192,100,96,100,48,100L0,100Z"/></svg>